<?xml version="1.0" encoding="UTF-8" standalone="no"?><!DOCTYPE svg PUBLIC "-//W3C//DTD SVG 1.1//EN" "http://www.w3.org/Graphics/SVG/1.1/DTD/svg11.dtd"><!-- Generated by graphviz version 2.40.1 (20161225.0304)
 --><!-- Title: G Pages: 1 --><svg xmlns="http://www.w3.org/2000/svg" xmlns:xlink="http://www.w3.org/1999/xlink" width="285pt" height="255pt" viewBox="0.00 0.00 285.30 255.20">
<g id="graph0" class="graph" transform="scale(1 1) rotate(0) translate(4 251.2)">
<title>G</title>
<polygon fill="#ffffff" stroke="transparent" points="-4,4 -4,-251.2 281.3001,-251.2 281.3001,4 -4,4"/>
<!-- unbound -->
<g id="node1" class="node">
<title>unbound</title>
<ellipse fill="none" stroke="#000000" cx="97.1789" cy="-229.2" rx="44.6722" ry="18"/>
<text text-anchor="middle" x="97.1789" y="-225" font-family="Times,serif" font-size="14.00" fill="#000000">unbound</text>
</g>
<!-- binding -->
<g id="node2" class="node">
<title>binding</title>
<ellipse fill="none" stroke="#000000" cx="97.1789" cy="-106.8" rx="40.5925" ry="18"/>
<text text-anchor="middle" x="97.1789" y="-102.6" font-family="Times,serif" font-size="14.00" fill="#000000">binding</text>
</g>
<!-- unbound&#45;&gt;binding -->
<g id="edge1" class="edge">
<title>unbound-&gt;binding</title>
<path fill="none" stroke="#000000" d="M97.1789,-211.1395C97.1789,-191.0712 97.1789,-158.4113 97.1789,-134.9752"/>
<polygon fill="#000000" stroke="#000000" points="100.679,-134.9346 97.1789,-124.9346 93.679,-134.9347 100.679,-134.9346"/>
<text text-anchor="middle" x="140.1309" y="-180.6" font-family="Times,serif" font-size="14.00" fill="#000000"> get()</text>
<text text-anchor="middle" x="140.1309" y="-163.8" font-family="Times,serif" font-size="14.00" fill="#000000"> orElse()</text>
<text text-anchor="middle" x="140.1309" y="-147" font-family="Times,serif" font-size="14.00" fill="#000000"> orElseThrow()</text>
</g>
<!-- bound -->
<g id="node3" class="node">
<title>bound</title>
<ellipse fill="#f2f2f2" stroke="#000000" cx="35.1789" cy="-18" rx="35.3587" ry="18"/>
<text text-anchor="middle" x="35.1789" y="-13.8" font-family="Times,serif" font-size="14.00" fill="#000000">bound</text>
</g>
<!-- binding&#45;&gt;bound -->
<g id="edge2" class="edge">
<title>binding-&gt;bound</title>
<path fill="none" stroke="#000000" d="M65.143,-95.4425C54.0639,-89.8172 42.8211,-81.8112 36.3775,-70.8 32.1445,-63.5664 30.7815,-54.7671 30.7787,-46.4422"/>
<polygon fill="#000000" stroke="#000000" points="34.2817,-46.497 31.389,-36.3047 27.2943,-46.0763 34.2817,-46.497"/>
<text text-anchor="middle" x="87.5796" y="-58.2" font-family="Times,serif" font-size="14.00" fill="#000000"> provider -&gt; value</text>
</g>
<!-- error -->
<g id="node4" class="node">
<title>error</title>
<ellipse fill="#f2f2f2" stroke="#000000" cx="159.1789" cy="-18" rx="29.5936" ry="18"/>
<text text-anchor="middle" x="159.1789" y="-13.8" font-family="Times,serif" font-size="14.00" fill="#000000">error</text>
</g>
<!-- binding&#45;&gt;error -->
<g id="edge3" class="edge">
<title>binding-&gt;error</title>
<path fill="none" stroke="#000000" d="M118.0328,-91.1253C124.7836,-85.2976 131.8859,-78.271 137.1789,-70.8 142.5429,-63.2287 146.9221,-54.1504 150.3207,-45.6738"/>
<polygon fill="#000000" stroke="#000000" points="153.6661,-46.7188 153.8604,-36.1258 147.1025,-44.2856 153.6661,-46.7188"/>
<text text-anchor="middle" x="211.7395" y="-58.2" font-family="Times,serif" font-size="14.00" fill="#000000"> provider -&gt; Throwable</text>
</g>
</g>
</svg>